<svg xmlns="http://www.w3.org/2000/svg" viewBox="0 0 32 32">
  <!-- cream background -->
  <rect width="32" height="32" rx="6" fill="#f5f0e8"/>
  <!-- thin gold border -->
  <rect x="1.5" y="1.5" width="29" height="29" rx="5" fill="none" stroke="#b07d28" stroke-width="1.2"/>
  <!-- scent wisp above cap -->
  <path d="M16 5 Q14.5 3.5 16 2.5" stroke="#b07d28" stroke-width="0.7" fill="none" stroke-linecap="round" opacity="0.55"/>
  <!-- perfume bottle outline: cap → neck → shoulders → body -->
  <path d="
    M 11.5 5
    L 20.5 5  Q 22 5 22 6.5
    L 22 8    Q 22 8.5 20.5 8.5
    L 18 8.5
    L 18 12.5 Q 23.5 14 23.5 16.5
    L 23.5 26.5 Q 23.5 29 21 29
    L 11 29   Q 8.5 29 8.5 26.5
    L 8.5 16.5 Q 8.5 14 14 12.5
    L 14 8.5
    L 11.5 8.5 Q 10 8.5 10 8
    L 10 6.5  Q 10 5 11.5 5
    Z
  " fill="none" stroke="#b07d28" stroke-width="0.9" stroke-linejoin="round"/>
</svg>
